<svg xmlns="http://www.w3.org/2000/svg" id="Layer_2" viewBox="0 0 446.5 167.9"><g id="Layer_2-2"><path d="M34.2,101.9c-.6-.9-.9-2.7-.8-5.4,0-2.7.5-5.5,1.3-8.5.4-1.6,1-3.2,1.8-4.8,1.3-2.6,2.4-3.3,3.3-2.1,6.8,9.9,10,20,9.6,30.2-.6,13.3-4.2,24-10.8,32.2-6.6,8.1-18.7,16.2-36.1,24.2-2.2,1-2.9-1.8-2.2-8.3.4-3,1-5.8,1.9-8.3,1-2.7,1.9-4.3,2.8-4.6,7.1-3.3,12.6-6,16.6-8.3,3.3-1.9,6.2-3.8,8.6-5.6,1.5-1.1,2.9-2.2,4-3.2.8-.7,1.5-1.3,2-1.8.6-.6.9-.9,1-1,1.3-1.4,2.3-2.6,3.1-3.8.6-.8,1-1.5,1.2-1.9.2-.4.4-.7.6-1-.5-2.5-1-4.7-1.7-6.5-1.2-3.4-3.3-7.2-6.2-11.5Z" style="fill:#333863; stroke-width:0px;"></path><path d="M87.2,127.1h-9.4c-13.1-.8-20.6-7.8-22.4-21-.2-2.8-.3-11.9-.3-27.1v-34.1c0-1.3.7-2.9,2-5,1.4-2.3,3.2-4.5,5.4-6.7,1.1-1,2.4-2.1,4.1-3.2,2.5-1.6,3.8-1.7,3.8-.2v34.1c0,15.2.1,24.1.3,26.6-.1,6.7.7,11.5,2.7,14.2,1.5,3.2,6.1,5,13.9,5.2v17.2Z" style="fill:#333863; stroke-width:0px;"></path><path d="M147.6,102.8c1,4.3,6,6.7,15.1,7.1v17.2h-7.5c-5,0-9.1-.5-12.5-1.5-3.3,5.4-8.5,7.8-15.6,7.3-7.7-.6-14.6-4.7-20.9-12.4-5.6,4.4-12.3,6.6-20.3,6.6v-17.2c9.1.5,18.6-6.3,28.3-20.3,3.4-4.1,6.3-6.7,8.8-7.8,3.8-1.6,7.6-1.2,11.3,1.4,4.5,3.1,7.8,6.5,10.1,10.3,1.5,2.8,2.5,5.9,3.1,9.3ZM133.9,116.2c3.1-.4,5.1-1.2,6-2.3l-2.2-3.3c-3.9-6-7.8-9.7-11.6-11-3.9-1.5-7.4-.3-10.6,3.6-.6.8-1.4,2-2.3,3.5,0,0,0,.1-.1.2,6.4,7.4,13.3,10.5,20.8,9.3Z" style="fill:#333863; stroke-width:0px;"></path><path d="M229.4,127.1c-6.9-.7-11.6-3.5-14.4-8.5-3.2,5.8-8.5,8.7-15.7,8.5-8.2-.4-13.6-3.3-16.4-8.5-3.4,3.5-6.6,5.8-9.6,6.8-2.7.9-6.6,1.5-11.7,1.7v-17.2h19v-17c0-3,2.5-6.9,7.3-11.7,1.1-1,2.4-2.1,4.1-3.2,3.2-1.7,4.9-1.7,4.9-.2v23.5c.2,5,4.8,7.9,13.9,8.6h1.9v-17c0-3,2.5-6.9,7.3-11.7,1.1-1,2.4-2.1,4.1-3.2,3.2-1.7,4.9-1.7,4.9-.2v23.5c.1,2.8,1.4,4.9,3.8,6.2,2.4,1.3,6.1,2.1,11,2.4h1.9v-17c0-3,2.5-6.9,7.3-11.7,1.1-1,2.4-2.1,4.1-3.2,3.2-1.7,4.9-1.7,4.9-.2v23.5c.3,5.5,4.2,8.3,11.8,8.6v17.2h-11.4c-6.8-.7-11.6-3.5-14.4-8.5-3.2,5.8-9.4,8.7-18.6,8.5ZM196.4,54.6c-1-.5-.6-2.1,1.2-4.9,1.1-1.7,2.2-3.2,3.4-4.5,1.8-2.1,3.6-3.8,5.3-4.9,1.5-1,2.7-1.3,3.4-.9,4,1.9,7.5,4.6,10.6,8.2.5.6.3,1.7-.5,3.5-.9,1.9-2.3,3.9-4.1,6-1.8,2.1-3.6,3.7-5.4,4.9-1.8,1.2-2.9,1.5-3.4,1-3.1-3.5-6.6-6.3-10.6-8.2ZM209.9,36.2c-1-.5-.6-2.1,1.2-4.9,1.1-1.7,2.2-3.2,3.4-4.5,1.8-2.1,3.6-3.8,5.3-4.9,1.5-1,2.7-1.3,3.4-.9,4,1.9,7.5,4.6,10.6,8.2.5.6.3,1.7-.5,3.5-.9,1.9-2.3,3.9-4.1,6-1.8,2.1-3.6,3.7-5.4,4.9-1.8,1.2-2.9,1.5-3.4,1-3.1-3.5-6.6-6.3-10.6-8.2ZM220.7,54.6c-1-.5-.6-2.1,1.2-4.9,1.1-1.7,2.2-3.2,3.4-4.5,1.8-2.1,3.6-3.8,5.4-4.9,1.5-1,2.6-1.3,3.4-.9,4,1.9,7.5,4.6,10.6,8.2.5.6.3,1.7-.5,3.5-.9,1.9-2.2,3.9-4.1,6-1.8,2.1-3.6,3.7-5.4,4.9-1.8,1.2-2.9,1.5-3.4,1-3.1-3.5-6.6-6.3-10.6-8.2Z" style="fill:#333863; stroke-width:0px;"></path><path d="M299.4,125c-6,1.5-15,2.2-26.7,2.1v-17.2h10.4c-1.2-3.6-1-7.5.7-11.8,2.3-6.1,6-11.5,11-16.1,2.6-2.4,5.1-4.3,7.6-5.7,0-.4,0-.5,0-.3.2-1.1.8-2.4,1.9-4,2-3.2,4.5-6.1,7.7-8.7,2.7-2.3,4.5-3.1,5.6-2.5,19.6,12.2,30.1,18.9,31.4,20.1,6,5.6,9,11,9.1,16.1,0,3.9-1.3,8-3.9,12-4.5,7.1-9.6,11.9-15.4,14.6-5.9,2.8-14.3,3.9-25.1,3.4-5.5-.3-10.3-.9-14.2-2ZM315,107.2l.2-2.1c0-1.1,0-2-.2-2.8-.3-1.6-.7-2.9-1.2-3.9-2.8-5.5-8.1-8.1-15.9-7.6.1,2.7.5,4.8,1.3,6.4,1.8,3.8,4.8,6.8,8.8,8.8,1.4.7,3.1,1.4,4.9,1.9.7-.2,1.4-.4,2.2-.6ZM329.8,109.8c4.9,0,9.1-.2,12.6-.8-.7-2.7-2.3-5.4-4.8-8.2-1-1.1-3.6-3.1-7.7-6-1,5-3.3,9.9-7.1,14.7,2.2.2,4.6.3,7.1.3Z" style="fill:#333863; stroke-width:0px;"></path><path d="M396.5,127.1h-9.4c-13.1-.8-20.6-7.8-22.4-21-.2-2.8-.3-11.9-.3-27.1v-34.1c0-1.3.7-2.9,2-5,1.4-2.3,3.2-4.5,5.4-6.7,1.1-1,2.4-2.1,4.1-3.2,2.5-1.6,3.8-1.7,3.8-.2v34.1c0,15.2.1,24.1.3,26.6-.1,6.7.7,11.5,2.7,14.2,1.5,3.2,6.2,5,13.9,5.2v17.2Z" style="fill:#333863; stroke-width:0px;"></path><path d="M417.7,51.1c.7.9,1.5,1.9,2.4,2.9,5.1,6.3,9.1,11.6,11.8,15.7,4,6,6.7,11.4,8,16,2.6,9.1,1.6,18.5-2.9,28-2.5,5.3-6.9,8.9-13.1,10.7-7,1.8-16.5,2.7-28.5,2.7v-17.2c21.4,0,33.6-2.3,36.6-7-2.4-6.3-4.5-10.8-6.3-13.5-2.7-4-6.6-9.1-11.6-15.2-6-7.4-9.9-12.4-11.8-15-.6-.8-.9-2.6-.8-5.4.1-2.4.5-4.9,1.1-7.5.3-1.3.6-2.4,1-3.6.9-2.5,1.8-4.1,2.8-4.6,2.6-1.7,15.2-9.2,37.9-22.4,1.3-.7,2,.3,2.3,3.1.1,1.7,0,3.4-.1,5.1-.4,3-1,5.8-1.9,8.3-1,2.6-1.9,4.2-2.8,4.6-9.9,5.8-17.9,10.5-24,14.1ZM433.8.2c1-.6,1.6.2,1.8,2.5.1,1.3,0,2.7-.1,4-.3,2.4-.8,4.5-1.5,6.5-.7,2.1-1.5,3.3-2.2,3.7-17.8,10.4-27.8,16.2-29.8,17.6-1,.7-1.6-.1-1.8-2.4-.1-1.4,0-2.8,0-4.1.3-2.4.8-4.5,1.5-6.5.7-2,1.4-3.2,2.2-3.6,2-1.3,12-7.2,29.8-17.6Z" style="fill:#333863; stroke-width:0px;"></path></g></svg>