<svg xmlns="http://www.w3.org/2000/svg" xmlns:i="http://ns.adobe.com/AdobeIllustrator/10.0/" viewBox="0 0 1000 1000"><g id="Layer_1" data-name="Layer 1"><circle cx="500.5" cy="500.5" r="500" fill="#333863" stroke-width="0"></circle></g><g id="Layer_2" data-name="Layer 2"><g opacity=".5"><g id="_Radial_Repeat_" data-name="&amp;lt;Radial Repeat&amp;gt;"><rect x="543.1" y="924.9" width="9.1" height="57.8" rx="3.9" ry="3.9" transform="translate(1192 1845.1) rotate(174)" fill="#969696" stroke-width="0"></rect></g><g id="_Radial_Repeat_-2" data-name="&amp;lt;Radial Repeat&amp;gt;"><rect x="590.3" y="917.4" width="9.1" height="57.8" rx="3.9" ry="3.9" transform="translate(1373.4 1748.3) rotate(168)" fill="#969696" stroke-width="0"></rect></g><g id="_Radial_Repeat_-3" data-name="&amp;lt;Radial Repeat&amp;gt;"><rect x="636.4" y="905.1" width="9.1" height="57.8" rx="3.9" ry="3.9" transform="translate(1539.2 1624.1) rotate(162)" fill="#969696" stroke-width="0"></rect></g><g id="_Radial_Repeat_-4" data-name="&amp;lt;Radial Repeat&amp;gt;"><rect x="681" y="887.9" width="9.1" height="57.8" rx="3.9" ry="3.9" transform="translate(1684.8 1475.6) rotate(156)" fill="#969696" stroke-width="0"></rect></g><g id="_Radial_Repeat_-5" data-name="&amp;lt;Radial Repeat&amp;gt;"><rect x="723.6" y="866.3" width="9.1" height="57.8" rx="3.9" ry="3.9" transform="translate(1806.3 1306.3) rotate(150)" fill="#969696" stroke-width="0"></rect></g><g id="_Radial_Repeat_-6" data-name="&amp;lt;Radial Repeat&amp;gt;"><rect x="763.6" y="840.3" width="9.1" height="57.8" rx="3.9" ry="3.9" transform="translate(1900.5 1120.8) rotate(144)" fill="#969696" stroke-width="0"></rect></g><g id="_Radial_Repeat_-7" data-name="&amp;lt;Radial Repeat&amp;gt;"><rect x="800.7" y="810.2" width="9.1" height="57.8" rx="3.9" ry="3.9" transform="translate(1965.2 923.8) rotate(138)" fill="#969696" stroke-width="0"></rect></g><g id="_Radial_Repeat_-8" data-name="&amp;lt;Radial Repeat&amp;gt;"><rect x="834.5" y="776.4" width="9.1" height="57.8" rx="3.9" ry="3.9" transform="translate(1999 720.6) rotate(132)" fill="#969696" stroke-width="0"></rect></g><g id="_Radial_Repeat_-9" data-name="&amp;lt;Radial Repeat&amp;gt;"><rect x="864.6" y="739.3" width="9.1" height="57.8" rx="3.9" ry="3.9" transform="translate(2001.5 516.6) rotate(126)" fill="#969696" stroke-width="0"></rect></g><g id="_Radial_Repeat_-10" data-name="&amp;lt;Radial Repeat&amp;gt;"><rect x="890.6" y="699.3" width="9.1" height="57.8" rx="3.9" ry="3.9" transform="translate(1973.3 317) rotate(120)" fill="#969696" stroke-width="0"></rect></g><g id="_Radial_Repeat_-11" data-name="&amp;lt;Radial Repeat&amp;gt;"><rect x="912.3" y="656.7" width="9.1" height="57.8" rx="3.9" ry="3.9" transform="translate(1916.1 126.9) rotate(114)" fill="#969696" stroke-width="0"></rect></g><g id="_Radial_Repeat_-12" data-name="&amp;lt;Radial Repeat&amp;gt;"><rect x="929.4" y="612.1" width="9.1" height="57.8" rx="3.9" ry="3.9" transform="translate(1832.2 -49.1) rotate(108)" fill="#969696" stroke-width="0"></rect></g><g id="_Radial_Repeat_-13" data-name="&amp;lt;Radial Repeat&amp;gt;"><rect x="941.8" y="566" width="9.1" height="57.8" rx="3.9" ry="3.9" transform="translate(1724.9 -207.1) rotate(102)" fill="#969696" stroke-width="0"></rect></g><g id="_Radial_Repeat_-14" data-name="&amp;lt;Radial Repeat&amp;gt;"><rect x="949.2" y="518.8" width="9.1" height="57.8" rx="3.9" ry="3.9" transform="translate(1598.2 -343.6) rotate(96)" fill="#969696" stroke-width="0"></rect></g><g id="_Radial_Repeat_-15" data-name="&amp;lt;Radial Repeat&amp;gt;"><rect x="951.7" y="471.1" width="9.1" height="57.8" rx="3.9" ry="3.9" transform="translate(1456.3 -456.3) rotate(90)" fill="#969696" stroke-width="0"></rect></g><g id="_Radial_Repeat_-16" data-name="&amp;lt;Radial Repeat&amp;gt;"><rect x="949.2" y="423.4" width="9.1" height="57.8" rx="3.9" ry="3.9" transform="translate(1303.9 -543.5) rotate(84)" fill="#969696" stroke-width="0"></rect></g><g id="_Radial_Repeat_-17" data-name="&amp;lt;Radial Repeat&amp;gt;"><rect x="941.8" y="376.2" width="9.1" height="57.8" rx="3.9" ry="3.9" transform="translate(1145.9 -604.7) rotate(78)" fill="#969696" stroke-width="0"></rect></g><g id="_Radial_Repeat_-18" data-name="&amp;lt;Radial Repeat&amp;gt;"><rect x="929.4" y="330.1" width="9.1" height="57.8" rx="3.9" ry="3.9" transform="translate(986.8 -640.2) rotate(72)" fill="#969696" stroke-width="0"></rect></g><g id="_Radial_Repeat_-19" data-name="&amp;lt;Radial Repeat&amp;gt;"><rect x="912.3" y="285.5" width="9.1" height="57.8" rx="3.9" ry="3.9" transform="translate(831.2 -651) rotate(66)" fill="#969696" stroke-width="0"></rect></g><g id="_Radial_Repeat_-20" data-name="&amp;lt;Radial Repeat&amp;gt;"><rect x="890.6" y="243" width="9.1" height="57.8" rx="3.9" ry="3.9" transform="translate(683 -639.3) rotate(60)" fill="#969696" stroke-width="0"></rect></g><g id="_Radial_Repeat_-21" data-name="&amp;lt;Radial Repeat&amp;gt;"><rect x="864.6" y="202.9" width="9.1" height="57.8" rx="3.9" ry="3.9" transform="translate(545.8 -607.6) rotate(54)" fill="#969696" stroke-width="0"></rect></g><g id="_Radial_Repeat_-22" data-name="&amp;lt;Radial Repeat&amp;gt;"><rect x="834.5" y="165.8" width="9.1" height="57.8" rx="3.9" ry="3.9" transform="translate(422.3 -559.2) rotate(48)" fill="#969696" stroke-width="0"></rect></g><g id="_Radial_Repeat_-23" data-name="&amp;lt;Radial Repeat&amp;gt;"><rect x="800.8" y="132" width="9.1" height="57.8" rx="3.9" ry="3.9" transform="translate(314.5 -497.5) rotate(42)" fill="#969696" stroke-width="0"></rect></g><g id="_Radial_Repeat_-24" data-name="&amp;lt;Radial Repeat&amp;gt;"><rect x="763.7" y="102" width="9.1" height="57.8" rx="3.9" ry="3.9" transform="translate(223.6 -426.6) rotate(36)" fill="#969696" stroke-width="0"></rect></g><g id="_Radial_Repeat_-25" data-name="&amp;lt;Radial Repeat&amp;gt;"><rect x="723.6" y="76" width="9.1" height="57.8" rx="3.9" ry="3.9" transform="translate(150 -350) rotate(30)" fill="#969696" stroke-width="0"></rect></g><g id="_Radial_Repeat_-26" data-name="&amp;lt;Radial Repeat&amp;gt;"><rect x="681.1" y="54.3" width="9.1" height="57.8" rx="3.9" ry="3.9" transform="translate(93.1 -271.7) rotate(24)" fill="#969696" stroke-width="0"></rect></g><g id="_Radial_Repeat_-27" data-name="&amp;lt;Radial Repeat&amp;gt;"><rect x="636.5" y="37.1" width="9.1" height="57.8" rx="3.9" ry="3.9" transform="translate(51.8 -194.9) rotate(18)" fill="#969696" stroke-width="0"></rect></g><g id="_Radial_Repeat_-28" data-name="&amp;lt;Radial Repeat&amp;gt;"><rect x="590.3" y="24.8" width="9.1" height="57.8" rx="3.9" ry="3.9" transform="translate(24.2 -122.5) rotate(12)" fill="#969696" stroke-width="0"></rect></g><g id="_Radial_Repeat_-29" data-name="&amp;lt;Radial Repeat&amp;gt;"><rect x="543.2" y="17.3" width="9.1" height="57.8" rx="3.9" ry="3.9" transform="translate(7.8 -57) rotate(6)" fill="#969696" stroke-width="0"></rect></g><g id="_Radial_Repeat_-30" data-name="&amp;lt;Radial Repeat&amp;gt;"><rect x="495.5" y="14.8" width="9.1" height="57.8" rx="3.9" ry="3.9" fill="#969696" stroke-width="0"></rect></g><g id="_Radial_Repeat_-31" data-name="&amp;lt;Radial Repeat&amp;gt;"><rect x="447.8" y="17.3" width="9.1" height="57.8" rx="3.9" ry="3.9" transform="translate(-2.4 47.5) rotate(-6)" fill="#969696" stroke-width="0"></rect></g><g id="_Radial_Repeat_-32" data-name="&amp;lt;Radial Repeat&amp;gt;"><rect x="400.6" y="24.8" width="9.1" height="57.8" rx="3.9" ry="3.9" transform="translate(-2.3 85.4) rotate(-12)" fill="#969696" stroke-width="0"></rect></g><g id="_Radial_Repeat_-33" data-name="&amp;lt;Radial Repeat&amp;gt;"><rect x="354.5" y="37.1" width="9.1" height="57.8" rx="3.9" ry="3.9" transform="translate(-2.8 114.2) rotate(-18)" fill="#969696" stroke-width="0"></rect></g><g id="_Radial_Repeat_-34" data-name="&amp;lt;Radial Repeat&amp;gt;"><rect x="309.9" y="54.2" width="9.1" height="57.8" rx="3.9" ry="3.9" transform="translate(-6.6 135.1) rotate(-24)" fill="#969696" stroke-width="0"></rect></g><g id="_Radial_Repeat_-35" data-name="&amp;lt;Radial Repeat&amp;gt;"><rect x="267.3" y="75.9" width="9.1" height="57.8" rx="3.9" ry="3.9" transform="translate(-16 150) rotate(-30)" fill="#969696" stroke-width="0"></rect></g><g id="_Radial_Repeat_-36" data-name="&amp;lt;Radial Repeat&amp;gt;"><rect x="227.3" y="101.9" width="9.1" height="57.8" rx="3.9" ry="3.9" transform="translate(-32.6 161.2) rotate(-36)" fill="#969696" stroke-width="0"></rect></g><g id="_Radial_Repeat_-37" data-name="&amp;lt;Radial Repeat&amp;gt;"><rect x="190.1" y="132" width="9.1" height="57.8" rx="3.9" ry="3.9" transform="translate(-57.7 171.6) rotate(-42)" fill="#969696" stroke-width="0"></rect></g><g id="_Radial_Repeat_-38" data-name="&amp;lt;Radial Repeat&amp;gt;"><rect x="156.4" y="165.8" width="9.1" height="57.8" rx="3.9" ry="3.9" transform="translate(-91.4 184) rotate(-48)" fill="#969696" stroke-width="0"></rect></g><g id="_Radial_Repeat_-39" data-name="&amp;lt;Radial Repeat&amp;gt;"><rect x="126.3" y="202.9" width="9.1" height="57.8" rx="3.9" ry="3.9" transform="translate(-133.6 201.4) rotate(-54)" fill="#969696" stroke-width="0"></rect></g><g id="_Radial_Repeat_-40" data-name="&amp;lt;Radial Repeat&amp;gt;"><rect x="100.3" y="242.9" width="9.1" height="57.8" rx="3.9" ry="3.9" transform="translate(-183 226.7) rotate(-60)" fill="#969696" stroke-width="0"></rect></g><g id="_Radial_Repeat_-41" data-name="&amp;lt;Radial Repeat&amp;gt;"><rect x="78.6" y="285.5" width="9.1" height="57.8" rx="3.9" ry="3.9" transform="translate(-237.9 262.5) rotate(-66)" fill="#969696" stroke-width="0"></rect></g><g id="_Radial_Repeat_-42" data-name="&amp;lt;Radial Repeat&amp;gt;"><rect x="61.5" y="330.1" width="9.1" height="57.8" rx="3.9" ry="3.9" transform="translate(-295.8 310.9) rotate(-72)" fill="#969696" stroke-width="0"></rect></g><g id="_Radial_Repeat_-43" data-name="&amp;lt;Radial Repeat&amp;gt;"><rect x="49.1" y="376.2" width="9.1" height="57.8" rx="3.9" ry="3.9" transform="translate(-353.7 373.4) rotate(-78)" fill="#969696" stroke-width="0"></rect></g><g id="_Radial_Repeat_-44" data-name="&amp;lt;Radial Repeat&amp;gt;"><rect x="41.7" y="423.4" width="9.1" height="57.8" rx="3.9" ry="3.9" transform="translate(-408.4 451) rotate(-84)" fill="#969696" stroke-width="0"></rect></g><g id="_Radial_Repeat_-45" data-name="&amp;lt;Radial Repeat&amp;gt;"><rect x="39.2" y="471.1" width="9.1" height="57.8" rx="3.9" ry="3.9" transform="translate(-456.3 543.7) rotate(-90)" fill="#969696" stroke-width="0"></rect></g><g id="_Radial_Repeat_-46" data-name="&amp;lt;Radial Repeat&amp;gt;"><rect x="41.7" y="518.8" width="9.1" height="57.8" rx="3.9" ry="3.9" transform="translate(-493.6 650.9) rotate(-96)" fill="#969696" stroke-width="0"></rect></g><g id="_Radial_Repeat_-47" data-name="&amp;lt;Radial Repeat&amp;gt;"><rect x="49.1" y="565.9" width="9.1" height="57.8" rx="3.9" ry="3.9" transform="translate(-517 771) rotate(-102)" fill="#969696" stroke-width="0"></rect></g><g id="_Radial_Repeat_-48" data-name="&amp;lt;Radial Repeat&amp;gt;"><rect x="61.5" y="612.1" width="9.1" height="57.8" rx="3.9" ry="3.9" transform="translate(-523.2 901.9) rotate(-108)" fill="#969696" stroke-width="0"></rect></g><g id="_Radial_Repeat_-49" data-name="&amp;lt;Radial Repeat&amp;gt;"><rect x="78.6" y="656.7" width="9.1" height="57.8" rx="3.9" ry="3.9" transform="translate(-509.3 1040.4) rotate(-114)" fill="#969696" stroke-width="0"></rect></g><g id="_Radial_Repeat_-50" data-name="&amp;lt;Radial Repeat&amp;gt;"><rect x="100.3" y="699.2" width="9.1" height="57.8" rx="3.9" ry="3.9" transform="translate(-473.3 1183) rotate(-120)" fill="#969696" stroke-width="0"></rect></g><g id="_Radial_Repeat_-51" data-name="&amp;lt;Radial Repeat&amp;gt;"><rect x="126.3" y="739.3" width="9.1" height="57.8" rx="3.9" ry="3.9" transform="translate(-413.7 1325.6) rotate(-126)" fill="#969696" stroke-width="0"></rect></g><g id="_Radial_Repeat_-52" data-name="&amp;lt;Radial Repeat&amp;gt;"><rect x="156.3" y="776.4" width="9.1" height="57.8" rx="3.9" ry="3.9" transform="translate(-329.9 1463.7) rotate(-132)" fill="#969696" stroke-width="0"></rect></g><g id="_Radial_Repeat_-53" data-name="&amp;lt;Radial Repeat&amp;gt;"><rect x="190.1" y="810.2" width="9.1" height="57.8" rx="3.9" ry="3.9" transform="translate(-222.1 1592.9) rotate(-138)" fill="#969696" stroke-width="0"></rect></g><g id="_Radial_Repeat_-54" data-name="&amp;lt;Radial Repeat&amp;gt;"><rect x="227.2" y="840.2" width="9.1" height="57.8" rx="3.9" ry="3.9" transform="translate(-91.6 1708.5) rotate(-144)" fill="#969696" stroke-width="0"></rect></g><g id="_Radial_Repeat_-55" data-name="&amp;lt;Radial Repeat&amp;gt;"><rect x="267.3" y="866.2" width="9.1" height="57.8" rx="3.9" ry="3.9" transform="translate(59.7 1806.3) rotate(-150)" fill="#969696" stroke-width="0"></rect></g><g id="_Radial_Repeat_-56" data-name="&amp;lt;Radial Repeat&amp;gt;"><rect x="309.8" y="887.9" width="9.1" height="57.8" rx="3.9" ry="3.9" transform="translate(228.7 1882.3) rotate(-156)" fill="#969696" stroke-width="0"></rect></g><g id="_Radial_Repeat_-57" data-name="&amp;lt;Radial Repeat&amp;gt;"><rect x="354.4" y="905" width="9.1" height="57.8" rx="3.9" ry="3.9" transform="translate(411.8 1933.1) rotate(-162)" fill="#969696" stroke-width="0"></rect></g><g id="_Radial_Repeat_-58" data-name="&amp;lt;Radial Repeat&amp;gt;"><rect x="400.6" y="917.4" width="9.1" height="57.8" rx="3.9" ry="3.9" transform="translate(604.6 1956.2) rotate(-168)" fill="#969696" stroke-width="0"></rect></g><g id="_Radial_Repeat_-59" data-name="&amp;lt;Radial Repeat&amp;gt;"><rect x="447.7" y="924.9" width="9.1" height="57.8" rx="3.9" ry="3.9" transform="translate(802.4 1949.6) rotate(-174)" fill="#969696" stroke-width="0"></rect></g><g id="_Radial_Repeat_-60" data-name="&amp;lt;Radial Repeat&amp;gt;"><rect x="495.4" y="927.4" width="9.1" height="57.8" rx="3.9" ry="3.9" transform="translate(1000 1912.6) rotate(180)" fill="#969696" stroke-width="0"></rect></g></g><g><g id="_Radial_Repeat_-61" data-name="&amp;lt;Radial Repeat&amp;gt;"><rect x="723.6" y="866.3" width="9.1" height="57.8" rx="3.9" ry="3.9" transform="translate(1806.3 1306.3) rotate(150)" fill="#fff" stroke-width="0"></rect></g><g id="_Radial_Repeat_-62" data-name="&amp;lt;Radial Repeat&amp;gt;"><rect x="890.6" y="699.3" width="9.1" height="57.8" rx="3.9" ry="3.9" transform="translate(1973.3 317) rotate(120)" fill="#fff" stroke-width="0"></rect></g><g id="_Radial_Repeat_-63" data-name="&amp;lt;Radial Repeat&amp;gt;"><rect x="951.7" y="471.1" width="9.1" height="57.8" rx="3.9" ry="3.9" transform="translate(1456.3 -456.3) rotate(90)" fill="#fff" stroke-width="0"></rect></g><g id="_Radial_Repeat_-64" data-name="&amp;lt;Radial Repeat&amp;gt;"><rect x="890.6" y="243" width="9.1" height="57.8" rx="3.9" ry="3.9" transform="translate(683 -639.3) rotate(60)" fill="#fff" stroke-width="0"></rect></g><g id="_Radial_Repeat_-65" data-name="&amp;lt;Radial Repeat&amp;gt;"><rect x="723.6" y="76" width="9.1" height="57.8" rx="3.9" ry="3.9" transform="translate(150 -350) rotate(30)" fill="#fff" stroke-width="0"></rect></g><g id="_Radial_Repeat_-66" data-name="&amp;lt;Radial Repeat&amp;gt;"><rect x="495.5" y="14.8" width="9.1" height="57.8" rx="3.9" ry="3.9" fill="#fff" stroke-width="0"></rect></g><g id="_Radial_Repeat_-67" data-name="&amp;lt;Radial Repeat&amp;gt;"><rect x="267.3" y="75.9" width="9.1" height="57.8" rx="3.9" ry="3.9" transform="translate(-16 150) rotate(-30)" fill="#fff" stroke-width="0"></rect></g><g id="_Radial_Repeat_-68" data-name="&amp;lt;Radial Repeat&amp;gt;"><rect x="100.3" y="242.9" width="9.1" height="57.8" rx="3.9" ry="3.9" transform="translate(-183 226.7) rotate(-60)" fill="#fff" stroke-width="0"></rect></g><g id="_Radial_Repeat_-69" data-name="&amp;lt;Radial Repeat&amp;gt;"><rect x="39.2" y="471.1" width="9.1" height="57.8" rx="3.9" ry="3.9" transform="translate(-456.3 543.7) rotate(-90)" fill="#fff" stroke-width="0"></rect></g><g id="_Radial_Repeat_-70" data-name="&amp;lt;Radial Repeat&amp;gt;"><rect x="100.3" y="699.2" width="9.1" height="57.8" rx="3.9" ry="3.9" transform="translate(-473.3 1183) rotate(-120)" fill="#fff" stroke-width="0"></rect></g><g id="_Radial_Repeat_-71" data-name="&amp;lt;Radial Repeat&amp;gt;"><rect x="267.3" y="866.2" width="9.1" height="57.8" rx="3.9" ry="3.9" transform="translate(59.7 1806.3) rotate(-150)" fill="#fff" stroke-width="0"></rect></g><g id="_Radial_Repeat_-72" data-name="&amp;lt;Radial Repeat&amp;gt;"><rect x="495.4" y="927.4" width="9.1" height="57.8" rx="3.9" ry="3.9" transform="translate(1000 1912.6) rotate(180)" fill="#fff" stroke-width="0"></rect></g></g></g><metadata></metadata></svg>