<svg xmlns="http://www.w3.org/2000/svg" xmlns:i="http://ns.adobe.com/AdobeIllustrator/10.0/" id="Layer_1" data-name="Layer 1" viewBox="0 0 1000 1000"><g><g id="_Radial_Repeat_" data-name="&amp;lt;Radial Repeat&amp;gt;"><path d="M695.2,426.9l47.6-12.5c1.6-.4,2.4-2.2,1.7-3.7l-9.9-19.2c-.8-1.5-2.7-1.9-4-.8l-37.6,31.6c-2.1,1.8-.4,5.2,2.3,4.5Z" fill="#7c86c2" stroke-width="0"></path></g><g id="_Radial_Repeat_-2" data-name="&amp;lt;Radial Repeat&amp;gt;"><path d="M500.3,316l13-47.4c.4-1.6-.7-3.2-2.4-3.3l-21.6-1c-1.7,0-3,1.4-2.7,3.1l8.6,48.4c.5,2.7,4.4,2.9,5.1.2Z" fill="#7c86c2" stroke-width="0"></path></g><g id="_Radial_Repeat_-3" data-name="&amp;lt;Radial Repeat&amp;gt;"><path d="M306.8,429.2l-34.6-34.9c-1.2-1.2-3.2-1-4.1.4l-11.6,18.2c-.9,1.4-.3,3.3,1.3,3.9l46.2,16.8c2.6.9,4.7-2.3,2.7-4.3Z" fill="#7c86c2" stroke-width="0"></path></g></g><path d="M198.1,549.6c0-166.8,135.2-301.9,301.9-301.9s301.9,135.2,301.9,301.9" fill="none" stroke="#f58220" stroke-miterlimit="238" stroke-width="55.3"></path><g><g id="_Radial_Repeat_-4" data-name="&amp;lt;Radial Repeat&amp;gt;"><path d="M844.2,499.7c-3.1.7-2.9,4,.3,4.4,35,4.4,118.9,11.4,109.3-24.2-9.1-33.6-26.6-37.9-33-38.3s-2.6.5-3.1,1.4c-4.2,7.9-27,46.1-73.5,56.7Z" fill="#f58220" stroke-width="0"></path></g><g id="_Radial_Repeat_-5" data-name="&amp;lt;Radial Repeat&amp;gt;"><path d="M816.7,405.7c-2.8,1.5-1.6,4.6,1.5,4.1,34.8-5.5,117.4-22.2,98.2-53.7-18.1-29.7-36.1-29-42.3-27.6s-2.4,1.2-2.6,2.3c-1.9,8.7-13,51.8-54.8,75Z" fill="#f58220" stroke-width="0"></path></g><g id="_Radial_Repeat_-6" data-name="&amp;lt;Radial Repeat&amp;gt;"><path d="M763.9,323c-2.2,2.3-.3,4.9,2.6,3.5,31.9-15,106.5-54.1,79.3-78.9-25.7-23.5-42.8-17.8-48.4-14.7s-2,1.8-1.9,2.9c.6,8.9,2,53.4-31.7,87.3Z" fill="#f58220" stroke-width="0"></path></g><g id="_Radial_Repeat_-7" data-name="&amp;lt;Radial Repeat&amp;gt;"><path d="M690.2,258.4c-1.5,2.8,1.1,4.8,3.5,2.7,26.4-23.3,87.2-81.6,54.2-97.9-31.2-15.4-46-5.1-50.6-.6s-1.4,2.3-1,3.3c3.1,8.4,16.8,50.7-6.1,92.6Z" fill="#f58220" stroke-width="0"></path></g><g id="_Radial_Repeat_-8" data-name="&amp;lt;Radial Repeat&amp;gt;"><path d="M601.4,216.9c-.7,3.1,2.4,4.3,4.1,1.6,18.9-29.8,61-102.7,24.7-109.2s-45.6,7.9-48.7,13.5-.7,2.6,0,3.4c5.3,7.2,30.3,44,20,90.7Z" fill="#f58220" stroke-width="0"></path></g><g id="_Radial_Repeat_-9" data-name="&amp;lt;Radial Repeat&amp;gt;"><path d="M504.6,201.8c.2,3.2,3.5,3.4,4.4.4,9.8-33.8,29.9-115.6-6.8-111.7-34.6,3.7-41.6,20.3-43,26.5s0,2.7.9,3.3c7.1,5.4,41.4,33.8,44.5,81.5Z" fill="#f58220" stroke-width="0"></path></g><g id="_Radial_Repeat_-10" data-name="&amp;lt;Radial Repeat&amp;gt;"><path d="M407.4,214.3c1.1,3,4.3,2.3,4.3-.9,0-35.2-3.6-119.4-37.7-105.4-32.2,13.2-34.3,31.1-33.9,37.5s.8,2.5,1.8,2.9c8.3,3.2,49.2,21,65.5,65.8Z" fill="#f58220" stroke-width="0"></path></g><g id="_Radial_Repeat_-11" data-name="&amp;lt;Radial Repeat&amp;gt;"><path d="M317.5,253.5c1.9,2.6,4.8,1.1,3.9-2-9.8-33.8-36.7-113.7-65.6-90.7-27.2,21.7-24.2,39.5-22.1,45.5s1.5,2.2,2.6,2.3c8.9.8,53.1,6.4,81.2,44.9Z" fill="#f58220" stroke-width="0"></path></g><g id="_Radial_Repeat_-12" data-name="&amp;lt;Radial Repeat&amp;gt;"><path d="M242.1,316.2c2.5,1.9,4.9-.3,3.2-3-18.9-29.7-67-98.9-88.3-68.8-20.1,28.4-12.3,44.6-8.5,49.8s2.1,1.7,3.1,1.5c8.8-1.8,52.7-8.6,90.5,20.5Z" fill="#f58220" stroke-width="0"></path></g><g id="_Radial_Repeat_-13" data-name="&amp;lt;Radial Repeat&amp;gt;"><path d="M187.2,397.4c3,1.2,4.6-1.7,2.2-3.8-26.4-23.3-91.9-76.3-104-41.5-11.4,32.9.7,46.3,5.7,50.2s2.5,1.1,3.4.6c7.9-4.1,48.2-23,92.7-5.6Z" fill="#f58220" stroke-width="0"></path></g><g id="_Radial_Repeat_-14" data-name="&amp;lt;Radial Repeat&amp;gt;"><path d="M157.2,490.7c3.2.3,3.9-2.9,1-4.2-31.9-15-109.5-47.6-111.4-10.8-1.8,34.8,13.6,44.3,19.5,46.7s2.7.3,3.4-.4c6.5-6.2,39.9-35.6,87.4-31.2Z" fill="#f58220" stroke-width="0"></path></g></g><path d="M623.1,515.1l-102.3-17.7-21.2-152.2c-.3-2.2-3.5-2.2-3.8,0l-24.7,177c1.7,13,20,26.2,21.7,16.8l-6.6-4.9c-11.1-7.7-10.9-16.9-10.7-20.6.4-8.8,4.6-16.6,11.6-20.9.4-.2.8-.5,1.2-.7,3.5-1.9,7.5-3,11.8-3,7.3,0,13.8,3.1,18.3,8.1,1.1,1.2,2.1,2.6,3,4,2.2,3.7,3.4,8,3.4,12.5s-.3,4.2-.8,6.2c-.4,1.6-1,3.2-1.7,4.6-4,8.2-12.4,13.8-22.2,13.8s-9.6-1.5-13.5-4v6c0,1.2,1.1,2.1,2.3,1.9l134.3-23.2c2.1-.4,2.1-3.4,0-3.8Z" fill="#b6b6db" stroke-width="0"></path><circle cx="500" cy="517" r="17.9" fill="none" stroke="#fff" stroke-miterlimit="10" stroke-width="5.6"></circle><circle cx="500" cy="517.5" r="25.9" fill="none" stroke="#333863" stroke-miterlimit="10" stroke-width="7"></circle><g><path d="M167.9,843.3c-4.8,0-9.3-.9-13.5-2.7-4.2-1.8-7.9-4.2-11-7.4-3.2-3.1-5.7-6.8-7.5-10.9-1.8-4.1-2.7-8.6-2.7-13.3s.9-9.2,2.7-13.3c1.8-4.1,4.3-7.8,7.5-10.9,3.2-3.1,6.8-5.6,11-7.4,4.2-1.8,8.7-2.7,13.5-2.7s5.9.3,8.7,1c2.8.6,5.4,1.6,7.7,2.9,1,.5,1.7,1.2,2.1,2,.5.9.7,1.7.7,2.6,0,1.5-.5,2.9-1.5,4.1-1,1.2-2.3,1.8-3.9,1.8s-1,0-1.6-.2c-.5-.1-1.1-.3-1.6-.6-1.6-.7-3.3-1.2-5-1.6-1.8-.4-3.6-.6-5.6-.6-4.1,0-7.9,1-11.3,3.1-3.4,2.1-6.1,4.8-8.1,8.3-2,3.5-3,7.3-3,11.5s1,7.9,3,11.4c2,3.5,4.7,6.3,8.1,8.3,3.4,2.1,7.1,3.1,11.3,3.1s4-.2,6.3-.6c2.3-.4,4.2-.9,5.6-1.5l-.9,2.9v-16.3l1.6,1.4h-10.6c-1.6,0-3-.5-4.1-1.6-1.1-1.1-1.7-2.4-1.7-4.1s.6-3,1.7-4.1c1.1-1.1,2.5-1.6,4.1-1.6h15.6c1.6,0,3,.6,4.1,1.7,1.1,1.1,1.6,2.5,1.6,4.1v20.2c0,1.3-.3,2.3-.9,3.1-.6.8-1.3,1.5-2,2-2.9,1.8-6.1,3.2-9.6,4.2-3.5,1-7.1,1.6-10.9,1.6Z" fill="#fff" stroke-width="0"></path><path d="M244.7,790.5c1.6,0,3,.5,4.1,1.6,1.1,1.1,1.6,2.5,1.6,4.2v40.2c0,1.6-.5,3-1.6,4.1-1.1,1.1-2.4,1.7-4.1,1.7s-3-.6-4.1-1.7c-1.1-1.1-1.6-2.5-1.6-4.1v-4.7l2.1.9c0,.8-.4,1.8-1.3,3-.9,1.2-2.1,2.3-3.6,3.5-1.5,1.1-3.3,2.1-5.4,2.9-2.1.8-4.3,1.2-6.7,1.2-4.4,0-8.3-1.1-11.9-3.4-3.6-2.2-6.4-5.4-8.4-9.3-2.1-4-3.1-8.5-3.1-13.6s1-9.8,3.1-13.7c2.1-4,4.8-7.1,8.3-9.3,3.5-2.2,7.4-3.4,11.6-3.4s5.2.4,7.5,1.2c2.3.8,4.3,1.9,5.9,3.1,1.7,1.3,3,2.6,3.9,3.9.9,1.3,1.4,2.4,1.4,3.3l-3.4,1.2v-6.9c0-1.6.5-3,1.6-4.1,1.1-1.1,2.4-1.7,4.1-1.7ZM225.5,832.8c2.8,0,5.2-.7,7.3-2.1s3.7-3.3,4.9-5.7c1.2-2.4,1.8-5.1,1.8-8.1s-.6-5.8-1.8-8.2c-1.2-2.4-2.8-4.3-4.9-5.7-2.1-1.4-4.5-2.1-7.3-2.1s-5.1.7-7.2,2.1c-2.1,1.4-3.7,3.3-4.9,5.7-1.2,2.4-1.8,5.1-1.8,8.2s.6,5.7,1.8,8.1c1.2,2.4,2.8,4.3,4.9,5.7,2.1,1.4,4.5,2.1,7.2,2.1Z" fill="#fff" stroke-width="0"></path><path d="M289.5,790.5c4.6,0,8,1,10.4,2.9,2.4,2,4,4.6,4.9,7.8.9,3.3,1.3,6.9,1.3,10.9v24.3c0,1.6-.5,3-1.6,4.1-1.1,1.1-2.4,1.7-4.1,1.7s-3-.6-4.1-1.7c-1.1-1.1-1.6-2.5-1.6-4.1v-24.3c0-2.1-.3-4-.8-5.7-.5-1.7-1.4-3-2.8-4-1.3-1-3.2-1.5-5.7-1.5s-4.5.5-6.2,1.5c-1.7,1-3,2.4-3.9,4-.9,1.7-1.3,3.6-1.3,5.7v24.3c0,1.6-.5,3-1.6,4.1-1.1,1.1-2.4,1.7-4.1,1.7s-3-.6-4.1-1.7c-1.1-1.1-1.6-2.5-1.6-4.1v-58.8c0-1.6.5-3,1.6-4.1,1.1-1.1,2.4-1.7,4.1-1.7s3,.6,4.1,1.7c1.1,1.1,1.6,2.5,1.6,4.1v23.6l-1.4-.3c.6-1.1,1.4-2.2,2.4-3.5,1-1.2,2.2-2.4,3.7-3.5,1.5-1.1,3.1-1.9,4.9-2.6,1.8-.7,3.7-1,5.8-1Z" fill="#fff" stroke-width="0"></path><path d="M315.6,834.4c-.6-.9-.9-2-.9-3.4,0-1.4.9-2.6,2.5-3.6,1-.6,2.1-.9,3.2-.8,1.1,0,2.2.7,3.3,1.8,1.8,1.8,3.8,3.3,5.8,4.3,2,1,4.6,1.5,7.6,1.5,1,0,2-.2,3.1-.4,1.1-.2,2.1-.7,3-1.5.9-.8,1.3-2,1.3-3.7s-.5-2.5-1.4-3.3c-1-.8-2.2-1.5-3.8-2.1-1.6-.6-3.3-1.1-5.2-1.6-2-.6-4-1.2-6-1.9-2.1-.7-3.9-1.6-5.7-2.7-1.7-1.1-3.1-2.6-4.2-4.4-1.1-1.8-1.6-4.2-1.6-6.9s.9-5.9,2.7-8.1c1.8-2.2,4.1-3.9,6.9-5.1,2.8-1.2,5.8-1.8,8.9-1.8s4,.2,6.2.7c2.2.5,4.2,1.2,6.2,2.3,2,1,3.6,2.4,4.9,4.1.7,1,1.1,2.1,1.2,3.4.1,1.3-.5,2.5-1.8,3.6-1,.8-2.1,1.1-3.3,1-1.3,0-2.3-.5-3.1-1.3-1.1-1.4-2.5-2.5-4.3-3.3-1.8-.8-3.9-1.2-6.2-1.2s-2,.1-3.1.3c-1.1.2-2.1.7-2.9,1.4-.8.7-1.2,1.9-1.2,3.5s.5,2.6,1.4,3.5c1,.9,2.2,1.6,3.9,2.1,1.6.5,3.3,1.1,5.2,1.6,1.9.5,3.8,1.1,5.8,1.8,2,.7,3.8,1.6,5.4,2.8,1.6,1.1,3,2.6,4,4.4,1,1.8,1.5,4.1,1.5,6.9s-1,6-2.9,8.3c-1.9,2.3-4.3,4-7.1,5.2-2.9,1.2-5.8,1.8-8.7,1.8s-7.5-.7-11.2-1.9c-3.7-1.3-6.8-3.6-9.3-6.9Z" fill="#fff" stroke-width="0"></path><path d="M391.1,790.5c4.6,0,8,1,10.4,2.9,2.4,2,4,4.6,4.9,7.8.9,3.3,1.3,6.9,1.3,10.9v24.3c0,1.6-.5,3-1.6,4.1-1.1,1.1-2.4,1.7-4.1,1.7s-3-.6-4.1-1.7c-1.1-1.1-1.6-2.5-1.6-4.1v-24.3c0-2.1-.3-4-.8-5.7-.5-1.7-1.4-3-2.8-4-1.3-1-3.2-1.5-5.7-1.5s-4.5.5-6.2,1.5c-1.7,1-3,2.4-3.9,4-.9,1.7-1.3,3.6-1.3,5.7v24.3c0,1.6-.5,3-1.6,4.1-1.1,1.1-2.4,1.7-4.1,1.7s-3-.6-4.1-1.7c-1.1-1.1-1.6-2.5-1.6-4.1v-58.8c0-1.6.5-3,1.6-4.1,1.1-1.1,2.4-1.7,4.1-1.7s3,.6,4.1,1.7c1.1,1.1,1.6,2.5,1.6,4.1v23.6l-1.4-.3c.6-1.1,1.4-2.2,2.4-3.5,1-1.2,2.2-2.4,3.7-3.5,1.5-1.1,3.1-1.9,4.9-2.6,1.8-.7,3.7-1,5.8-1Z" fill="#fff" stroke-width="0"></path><path d="M469.4,816.9c0,5.2-1.2,9.8-3.5,13.7-2.3,4-5.4,7.1-9.3,9.3-3.9,2.2-8.3,3.3-13.1,3.3s-9.2-1.1-13.1-3.3c-3.9-2.2-7-5.3-9.3-9.3-2.3-4-3.5-8.5-3.5-13.7s1.2-9.8,3.5-13.7c2.3-4,5.4-7.1,9.3-9.3,3.9-2.2,8.3-3.4,13.1-3.4s9.2,1.1,13.1,3.4c3.9,2.3,7,5.4,9.3,9.3,2.3,4,3.5,8.5,3.5,13.7ZM458,816.9c0-3.2-.7-6-1.9-8.4-1.3-2.4-3-4.2-5.2-5.6-2.2-1.3-4.6-2-7.3-2s-5.1.7-7.3,2c-2.2,1.3-3.9,3.2-5.2,5.6-1.3,2.4-1.9,5.2-1.9,8.4s.6,5.9,1.9,8.3c1.3,2.4,3,4.2,5.2,5.6s4.6,2,7.3,2,5.1-.7,7.3-2,3.9-3.2,5.2-5.6c1.3-2.4,1.9-5.2,1.9-8.3Z" fill="#fff" stroke-width="0"></path><path d="M506.1,790.5c5.1,0,8.8,1.2,11.2,3.7,2.4,2.4,4,5.6,4.8,9.5l-1.6-.9.8-1.5c.8-1.5,1.9-3,3.5-4.7,1.6-1.7,3.5-3.1,5.8-4.3,2.2-1.2,4.8-1.8,7.6-1.8,4.6,0,8,1,10.4,2.9,2.4,2,4,4.6,4.9,7.8.9,3.3,1.3,6.9,1.3,10.9v24.3c0,1.6-.5,3-1.6,4.1-1.1,1.1-2.4,1.7-4.1,1.7s-3-.6-4.1-1.7c-1.1-1.1-1.6-2.5-1.6-4.1v-24.3c0-2.1-.3-4-.8-5.7-.5-1.7-1.4-3-2.8-4-1.3-1-3.2-1.5-5.7-1.5s-4.5.5-6.2,1.5c-1.7,1-3,2.4-3.9,4-.9,1.7-1.3,3.6-1.3,5.7v24.3c0,1.6-.5,3-1.6,4.1-1.1,1.1-2.4,1.7-4.1,1.7s-3-.6-4.1-1.7c-1.1-1.1-1.6-2.5-1.6-4.1v-24.3c0-2.1-.3-4-.8-5.7-.5-1.7-1.4-3-2.8-4-1.3-1-3.2-1.5-5.7-1.5s-4.5.5-6.2,1.5c-1.7,1-3,2.4-3.9,4-.9,1.7-1.3,3.6-1.3,5.7v24.3c0,1.6-.5,3-1.6,4.1-1.1,1.1-2.4,1.7-4.1,1.7s-3-.6-4.1-1.7c-1.1-1.1-1.6-2.5-1.6-4.1v-39.3c0-1.6.5-3,1.6-4.1,1.1-1.1,2.4-1.7,4.1-1.7s3,.6,4.1,1.7c1.1,1.1,1.6,2.5,1.6,4.1v4.1l-1.4-.3c.6-1.1,1.4-2.2,2.4-3.5,1-1.2,2.2-2.4,3.7-3.5,1.5-1.1,3.1-1.9,4.8-2.6,1.8-.7,3.7-1,5.8-1Z" fill="#fff" stroke-width="0"></path><path d="M608.7,790.5c1.6,0,3,.5,4.1,1.6,1.1,1.1,1.6,2.5,1.6,4.2v40.2c0,1.6-.5,3-1.6,4.1-1.1,1.1-2.4,1.7-4.1,1.7s-3-.6-4.1-1.7c-1.1-1.1-1.6-2.5-1.6-4.1v-4.7l2.1.9c0,.8-.4,1.8-1.3,3-.9,1.2-2.1,2.3-3.6,3.5-1.5,1.1-3.3,2.1-5.4,2.9-2.1.8-4.3,1.2-6.7,1.2-4.4,0-8.3-1.1-11.9-3.4-3.6-2.2-6.4-5.4-8.4-9.3-2.1-4-3.1-8.5-3.1-13.6s1-9.8,3.1-13.7c2.1-4,4.8-7.1,8.3-9.3,3.5-2.2,7.4-3.4,11.6-3.4s5.2.4,7.5,1.2c2.3.8,4.3,1.9,5.9,3.1,1.7,1.3,3,2.6,3.9,3.9.9,1.3,1.4,2.4,1.4,3.3l-3.4,1.2v-6.9c0-1.6.5-3,1.6-4.1,1.1-1.1,2.4-1.7,4.1-1.7ZM589.5,832.8c2.8,0,5.2-.7,7.3-2.1s3.7-3.3,4.9-5.7c1.2-2.4,1.8-5.1,1.8-8.1s-.6-5.8-1.8-8.2c-1.2-2.4-2.8-4.3-4.9-5.7-2.1-1.4-4.5-2.1-7.3-2.1s-5.1.7-7.2,2.1c-2.1,1.4-3.7,3.3-4.9,5.7-1.2,2.4-1.8,5.1-1.8,8.2s.6,5.7,1.8,8.1c1.2,2.4,2.8,4.3,4.9,5.7,2.1,1.4,4.5,2.1,7.2,2.1Z" fill="#fff" stroke-width="0"></path><path d="M632.5,842.3c-1.6,0-3-.6-4.1-1.7-1.1-1.1-1.6-2.5-1.6-4.1v-39.3c0-1.6.5-3,1.6-4.1,1.1-1.1,2.4-1.7,4.1-1.7s3,.6,4.1,1.7c1.1,1.1,1.6,2.5,1.6,4.1v8.9l-.7-6.4c.7-1.5,1.6-2.9,2.7-4,1.1-1.2,2.4-2.2,3.8-2.9,1.4-.8,2.9-1.4,4.5-1.8,1.6-.4,3.2-.6,4.8-.6s3.5.5,4.8,1.6c1.3,1.1,2,2.3,2,3.8,0,2.1-.5,3.6-1.6,4.5-1.1.9-2.3,1.4-3.5,1.4s-2.3-.2-3.3-.7c-1-.4-2.1-.7-3.4-.7s-2.3.3-3.5.8c-1.2.5-2.3,1.4-3.2,2.5-1,1.1-1.8,2.6-2.4,4.2-.6,1.7-.9,3.7-.9,5.9v22.5c0,1.6-.5,3-1.6,4.1-1.1,1.1-2.4,1.7-4.1,1.7Z" fill="#fff" stroke-width="0"></path><path d="M661.7,842.2c-1.8,0-3.2-.5-4.2-1.5-1-1-1.5-2.4-1.5-4.2v-1.6c0-1.8.5-3.2,1.5-4.2s2.4-1.5,4.2-1.5h1.2c1.8,0,3.2.5,4.2,1.5,1,1,1.5,2.4,1.5,4.2v1.6c0,1.8-.5,3.2-1.5,4.2-1,1-2.4,1.5-4.2,1.5h-1.2Z" fill="#fff" stroke-width="0"></path><path d="M703,790.5c3.6,0,6.8.4,9.5,1.1,2.7.8,4.8,1.8,6.3,3.2,1.5,1.4,2.2,3,2.2,4.9s-.4,2.5-1.1,3.6c-.8,1.1-1.9,1.7-3.3,1.7s-1.9-.1-2.5-.4c-.7-.3-1.3-.6-1.8-1.1-.5-.4-1.1-.9-1.8-1.2-.6-.4-1.6-.7-2.9-.9-1.3-.2-2.3-.3-2.9-.3-3.2,0-6,.7-8.2,2.1-2.3,1.4-4,3.3-5.2,5.7-1.2,2.4-1.8,5.1-1.8,8.2s.6,5.8,1.9,8.1c1.2,2.4,2.9,4.3,5.1,5.7,2.2,1.4,4.7,2.1,7.6,2.1s2.9,0,4.1-.3c1.1-.2,2.1-.5,2.9-.9.9-.5,1.7-1,2.4-1.6.7-.6,1.7-.9,3.1-.9s2.9.5,3.8,1.6c.9,1,1.3,2.3,1.3,3.9s-.9,3-2.7,4.3c-1.8,1.3-4.1,2.3-7,3.1s-6,1.2-9.4,1.2c-5,0-9.4-1.2-13-3.5-3.7-2.3-6.5-5.5-8.5-9.5s-3-8.5-3-13.4,1.1-9.8,3.2-13.7c2.1-4,5.1-7.1,8.8-9.3,3.8-2.2,8.1-3.4,13-3.4Z" fill="#fff" stroke-width="0"></path><path d="M779.2,816.9c0,5.2-1.2,9.8-3.5,13.7-2.3,4-5.4,7.1-9.3,9.3-3.9,2.2-8.3,3.3-13.1,3.3s-9.2-1.1-13.1-3.3c-3.9-2.2-7-5.3-9.3-9.3-2.3-4-3.5-8.5-3.5-13.7s1.2-9.8,3.5-13.7c2.3-4,5.4-7.1,9.3-9.3,3.9-2.2,8.3-3.4,13.1-3.4s9.2,1.1,13.1,3.4c3.9,2.3,7,5.4,9.3,9.3,2.3,4,3.5,8.5,3.5,13.7ZM767.7,816.9c0-3.2-.7-6-2-8.4-1.3-2.4-3-4.2-5.2-5.6-2.2-1.3-4.6-2-7.3-2s-5.1.7-7.3,2c-2.2,1.3-3.9,3.2-5.2,5.6-1.3,2.4-1.9,5.2-1.9,8.4s.6,5.9,1.9,8.3c1.3,2.4,3,4.2,5.2,5.6s4.6,2,7.3,2,5.1-.7,7.3-2c2.2-1.3,3.9-3.2,5.2-5.6,1.3-2.4,2-5.2,2-8.3Z" fill="#fff" stroke-width="0"></path><path d="M815.9,790.5c5.1,0,8.8,1.2,11.2,3.7,2.4,2.4,4,5.6,4.8,9.5l-1.6-.9.8-1.5c.8-1.5,1.9-3,3.5-4.7,1.6-1.7,3.5-3.1,5.8-4.3,2.2-1.2,4.8-1.8,7.6-1.8,4.6,0,8,1,10.4,2.9,2.4,2,4,4.6,4.9,7.8.9,3.3,1.3,6.9,1.3,10.9v24.3c0,1.6-.5,3-1.6,4.1-1.1,1.1-2.4,1.7-4.1,1.7s-3-.6-4.1-1.7c-1.1-1.1-1.6-2.5-1.6-4.1v-24.3c0-2.1-.3-4-.8-5.7-.5-1.7-1.4-3-2.8-4-1.3-1-3.2-1.5-5.7-1.5s-4.5.5-6.2,1.5c-1.7,1-3,2.4-3.9,4-.9,1.7-1.3,3.6-1.3,5.7v24.3c0,1.6-.5,3-1.6,4.1-1.1,1.1-2.4,1.7-4.1,1.7s-3-.6-4.1-1.7c-1.1-1.1-1.6-2.5-1.6-4.1v-24.3c0-2.1-.3-4-.8-5.7-.5-1.7-1.4-3-2.8-4-1.3-1-3.2-1.5-5.7-1.5s-4.5.5-6.2,1.5c-1.7,1-3,2.4-3.9,4-.9,1.7-1.3,3.6-1.3,5.7v24.3c0,1.6-.5,3-1.6,4.1-1.1,1.1-2.4,1.7-4.1,1.7s-3-.6-4.1-1.7c-1.1-1.1-1.6-2.5-1.6-4.1v-39.3c0-1.6.5-3,1.6-4.1,1.1-1.1,2.4-1.7,4.1-1.7s3,.6,4.1,1.7c1.1,1.1,1.6,2.5,1.6,4.1v4.1l-1.4-.3c.6-1.1,1.4-2.2,2.4-3.5,1-1.2,2.2-2.4,3.7-3.5,1.5-1.1,3.1-1.9,4.8-2.6,1.8-.7,3.7-1,5.8-1Z" fill="#fff" stroke-width="0"></path></g><g><path d="M177.4,758.1l-4.5-14.5c13.2-6.3,23.4-13.1,30.6-20.5,7.3-7.4,10.9-14.3,10.9-20.9s-.9-8.9-2.8-16.8c-1.9-8-5-19.6-9.2-35.1l18-5.3,2.4,1.3c5.3,24.8,7.9,43.8,7.9,57s-4.3,30.9-12.9,39.6c-8.6,8.7-22.1,13.8-40.5,15.1Z" fill="#f0efef" stroke-width="0"></path><path d="M292.3,718.7c-10,0-18.1-1.3-24.2-3.9-6.1-2.6-10.6-6.9-13.6-12.8-3-5.9-4.7-13.7-5.1-23.5l-2.4-91.6,21.6-5.5,2.4,1.3-2.1,95.5c0,5.1,1.7,8.8,5,11.1,3.3,2.3,9.4,3.4,18.3,3.4l4.1,1.9v22.2l-4.1,1.9Z" fill="#f0efef" stroke-width="0"></path><path d="M357.7,720.5c-7,0-13.9-1.6-20.5-4.7-6.6-3.1-12.3-7.3-16.9-12.6-3.5,5.8-7.3,9.8-11.4,12-4.1,2.3-9.6,3.4-16.6,3.4l-4.1-1.9v-22.2l4.1-1.9c5.4,0,9.3-.6,11.8-1.9,2.5-1.3,4.8-3.7,7-7.3l9.4-16.2c5.6-10,11.1-17.2,16.4-21.4,5.3-4.3,11-6.4,17.1-6.4s12.3,2.3,17.3,6.9c5,4.6,9.1,11.2,12.2,19.8l3.6,10.3c2.1,6.1,5,10.4,8.6,12.7,3.6,2.3,9.5,3.5,17.7,3.5l4.1,1.9v22.2l-4.1,1.9c-7.6,0-14-1.4-19.1-4.2-5.1-2.8-9.2-7-12.5-12.7-2.5,6.6-5.7,11.4-9.5,14.4-3.8,2.9-8.7,4.4-14.6,4.4ZM357.7,694.8c8.3,0,12.4-2.9,12.4-8.8s-.8-7.6-2.3-11.2c-1.5-3.6-3.5-6.5-5.9-8.6-2.4-2.2-5.1-3.3-8-3.3s-6.9,1.7-10.5,5c-3.6,3.3-7.6,8.7-12,16.3l-.2.4c3,3.1,6.9,5.6,11.6,7.5,4.7,1.9,9.7,2.8,14.9,2.8Z" fill="#f0efef" stroke-width="0"></path><path d="M522.9,718.7c-10.7,0-18.8-3.6-24.4-10.7-6.4,7.1-14.9,10.7-25.4,10.7s-19.9-3.9-26.1-11.8c-7.1,7.9-18.4,11.8-33.7,11.8l-4.1-1.9v-22.2l4.1-1.9c9,0,15.4-.8,19.3-2.5,3.8-1.7,5.7-4.6,5.7-8.7v-27.3l15.4-3.4,2.4,1.3v29.3c0,7.5,5.6,11.3,16.9,11.3s10-.9,12.8-2.8c2.8-1.9,4.1-4.9,4.1-9v-28.6l15.4-3.4,2.4,1.3v30.6c0,4.1,1.2,7.1,3.5,9,2.3,1.9,6.2,2.8,11.6,2.8s9.3-.9,11.7-2.8c2.4-1.9,3.6-5.1,3.6-9.8s-1.1-15.3-3.4-33.8l16.2-3,2.4,1.3c1.6,14.7,2.4,25.9,2.4,33.7,0,12.9-2.9,22.9-8.6,29.9-5.8,7-13.8,10.5-24.3,10.5ZM484.6,632.2c-3.9,0-7.1-1.3-9.6-3.8-2.5-2.5-3.8-5.6-3.8-9.2s1.3-6.9,3.8-9.4,5.7-3.8,9.6-3.8,7,1.3,9.5,3.8c2.4,2.5,3.7,5.6,3.7,9.4s-1.2,6.7-3.7,9.2c-2.4,2.5-5.6,3.8-9.5,3.8ZM498.5,605.7c-3.8,0-6.8-1.2-9.2-3.6-2.4-2.4-3.6-5.4-3.6-9s1.2-6.8,3.6-9.1c2.4-2.3,5.5-3.5,9.2-3.5s6.7,1.2,9.1,3.5c2.4,2.3,3.7,5.4,3.7,9.1s-1.2,6.6-3.7,9c-2.4,2.4-5.5,3.6-9.1,3.6ZM513.2,632.2c-3.8,0-6.9-1.3-9.4-3.8-2.5-2.5-3.8-5.6-3.8-9.2s1.3-6.9,3.8-9.4,5.6-3.8,9.4-3.8,7.1,1.3,9.6,3.8c2.5,2.5,3.8,5.6,3.8,9.4s-1.3,6.7-3.8,9.2c-2.5,2.5-5.7,3.8-9.6,3.8Z" fill="#f0efef" stroke-width="0"></path><path d="M635.6,720.5c-12.3,0-21.7-2.7-28.4-8-6.6-5.3-10-12.9-10-22.7s2.1-14.7,6.4-21.9c4.3-7.2,11.2-15.3,20.9-24.2-1.4-1.5-3.7-3.8-7-6.8l14.3-14.5,2.4,1.3c10,9.8,17.8,18.1,23.2,25,5.5,6.9,9.3,13.3,11.7,19.1,2.3,5.8,3.5,12.1,3.5,18.7,0,11.4-3,19.9-9.1,25.5-6.1,5.6-15.4,8.4-27.9,8.4ZM635.6,695.2c6.3,0,11-.9,14.3-2.8,3.3-1.9,4.9-4.6,4.9-8.1s-1.4-7.3-4.3-11.8c-2.9-4.5-7.8-10.4-14.9-17.7-6.8,6.8-11.5,12.3-14.2,16.5-2.7,4.3-4,8.2-4,11.8s1.5,7.2,4.4,9.1c2.9,1.9,7.5,2.9,13.8,2.9Z" fill="#f0efef" stroke-width="0"></path><path d="M732.2,718.7c-10,0-18.1-1.3-24.2-3.9-6.1-2.6-10.6-6.9-13.6-12.8-3-5.9-4.7-13.7-5.1-23.5l-2.4-91.6,21.6-5.5,2.4,1.3-2.1,95.5c0,5.1,1.7,8.8,5,11.1,3.3,2.3,9.4,3.4,18.3,3.4l4.1,1.9v22.2l-4.1,1.9Z" fill="#f0efef" stroke-width="0"></path><path d="M751.7,718.7h-19.6l-4.1-1.9v-22.2l4.1-1.9h19.2c22.2,0,33.3-3.3,33.3-10s-1.8-6-5.4-10.2c-3.6-4.2-9.5-10-17.8-17.4l-21.4-20.3v-24.4l70.1-29,2.4,1.3v22l-49.3,20.5,16.7,16.9c7.9,7.9,13.6,15.3,17.1,22.3,3.5,7,5.3,14.3,5.3,21.9s-1.8,14.2-5.3,18.9c-3.5,4.7-9,8.1-16.4,10.2-7.4,2.1-17.1,3.2-29.1,3.2ZM748.5,594.8l-2.4-1.1v-15.2l51.7-21.4,2.4,1.3v15.2l-51.7,21.2Z" fill="#f0efef" stroke-width="0"></path></g><metadata></metadata></svg>